<?xml version="1.0" encoding="utf-8"?>
<!-- Generator: Adobe Illustrator 16.0.0, SVG Export Plug-In . SVG Version: 6.00 Build 0)  -->
<!DOCTYPE svg PUBLIC "-//W3C//DTD SVG 1.1//EN" "http://www.w3.org/Graphics/SVG/1.1/DTD/svg11.dtd">
<svg version="1.1" id="Í_xBC__xB2_ã_1" xmlns="http://www.w3.org/2000/svg" xmlns:xlink="http://www.w3.org/1999/xlink" x="0px"
	 y="0px" width="322.348px" height="43.098px" viewBox="0 0 322.348 43.098" enable-background="new 0 0 322.348 43.098"
	 xml:space="preserve">
<g>
	<path fill="#62BDD7" d="M67.218,8.82h3.234v6.141c0,1.195,0.082,2.025,0.247,2.49s0.429,0.826,0.793,1.084s0.813,0.387,1.345,0.387
		c0.532,0,0.985-0.127,1.357-0.381s0.648-0.627,0.828-1.119c0.133-0.367,0.2-1.152,0.2-2.355V8.82h3.199v5.402
		c0,2.227-0.176,3.75-0.527,4.57c-0.43,1-1.063,1.768-1.898,2.303s-1.898,0.803-3.188,0.803c-1.398,0-2.529-0.313-3.393-0.938
		s-1.471-1.496-1.822-2.613c-0.25-0.773-0.375-2.18-0.375-4.219V8.82z"/>
	<path fill="#62BDD7" d="M84.808,8.82v1.406c0.578-0.578,1.203-1.012,1.875-1.301s1.391-0.434,2.156-0.434
		c1.664,0,3.078,0.629,4.242,1.887s1.746,2.871,1.746,4.84c0,1.898-0.602,3.486-1.805,4.764s-2.629,1.916-4.277,1.916
		c-0.734,0-1.418-0.131-2.051-0.393s-1.262-0.689-1.887-1.283v6.012h-3.176V8.82H84.808z M88.171,11.445
		c-1.008,0-1.844,0.344-2.508,1.031s-0.996,1.586-0.996,2.695c0,1.133,0.332,2.049,0.996,2.748s1.5,1.049,2.508,1.049
		c0.977,0,1.799-0.355,2.467-1.066s1.002-1.617,1.002-2.719c0-1.094-0.328-1.99-0.984-2.689S89.171,11.445,88.171,11.445z"/>
	<path fill="#62BDD7" d="M106.886,3.898h3.199V21.57h-3.199v-1.348c-0.624,0.594-1.25,1.021-1.879,1.283
		c-0.627,0.262-1.309,0.393-2.042,0.393c-1.646,0-3.07-0.639-4.272-1.916c-1.201-1.277-1.803-2.865-1.803-4.764
		c0-1.969,0.582-3.582,1.744-4.84c1.163-1.258,2.576-1.887,4.238-1.887c0.764,0,1.482,0.145,2.152,0.434
		c0.672,0.289,1.292,0.723,1.861,1.301V3.898z M103.522,11.445c-0.988,0-1.81,0.35-2.464,1.049
		c-0.653,0.699-0.981,1.596-0.981,2.689c0,1.102,0.333,2.008,0.999,2.719c0.665,0.711,1.485,1.066,2.458,1.066
		c1.005,0,1.838-0.35,2.5-1.049s0.992-1.615,0.992-2.748c0-1.109-0.33-2.008-0.992-2.695S104.535,11.445,103.522,11.445z"/>
	<path fill="#62BDD7" d="M122.729,8.82h3.199v12.75h-3.199v-1.348c-0.624,0.594-1.25,1.021-1.879,1.283
		c-0.627,0.262-1.309,0.393-2.042,0.393c-1.646,0-3.07-0.639-4.272-1.916c-1.201-1.277-1.803-2.865-1.803-4.764
		c0-1.969,0.582-3.582,1.744-4.84c1.163-1.258,2.576-1.887,4.238-1.887c0.764,0,1.482,0.145,2.152,0.434
		c0.672,0.289,1.292,0.723,1.861,1.301V8.82z M119.366,11.445c-0.988,0-1.81,0.35-2.464,1.049c-0.653,0.699-0.981,1.596-0.981,2.689
		c0,1.102,0.333,2.008,0.999,2.719c0.665,0.711,1.485,1.066,2.458,1.066c1.005,0,1.838-0.35,2.5-1.049s0.992-1.615,0.992-2.748
		c0-1.109-0.33-2.008-0.992-2.695S120.379,11.445,119.366,11.445z"/>
	<path fill="#62BDD7" d="M129.55,4.121h3.199V8.82h1.898v2.754h-1.898v9.996h-3.199v-9.996h-1.641V8.82h1.641V4.121z"/>
	<path fill="#62BDD7" d="M149.132,16.121h-10.277c0.148,0.906,0.545,1.627,1.189,2.162s1.467,0.803,2.467,0.803
		c1.195,0,2.223-0.418,3.082-1.254l2.695,1.266c-0.672,0.953-1.477,1.658-2.414,2.115s-2.051,0.686-3.34,0.686
		c-2,0-3.629-0.631-4.887-1.893s-1.887-2.842-1.887-4.74c0-1.945,0.627-3.561,1.881-4.846s2.826-1.928,4.717-1.928
		c2.008,0,3.641,0.643,4.898,1.928s1.887,2.982,1.887,5.092L149.132,16.121z M145.933,13.602c-0.211-0.711-0.627-1.289-1.25-1.734
		c-0.622-0.445-1.344-0.668-2.166-0.668c-0.892,0-1.674,0.25-2.348,0.75c-0.422,0.313-0.813,0.863-1.174,1.652H145.933z"/>
	<path fill="#62BDD7" d="M151.698,8.82h3.199v1.465c0.547-0.602,1.156-1.051,1.824-1.348s1.397-0.445,2.188-0.445
		c0.797,0,1.516,0.195,2.157,0.586s1.157,0.961,1.548,1.711c0.508-0.75,1.132-1.32,1.871-1.711c0.738-0.391,1.545-0.586,2.422-0.586
		c0.906,0,1.703,0.211,2.392,0.633s1.183,0.973,1.483,1.652s0.451,1.785,0.451,3.316v7.477h-3.223v-6.469
		c0-1.445-0.18-2.424-0.539-2.936s-0.898-0.768-1.617-0.768c-0.547,0-1.037,0.156-1.471,0.469s-0.756,0.744-0.967,1.295
		s-0.316,1.436-0.316,2.654v5.754h-3.223v-6.176c0-1.141-0.084-1.967-0.252-2.479s-0.421-0.893-0.758-1.143
		c-0.336-0.25-0.744-0.375-1.222-0.375c-0.532,0-1.017,0.158-1.45,0.475c-0.436,0.316-0.76,0.76-0.975,1.33
		c-0.217,0.57-0.324,1.469-0.324,2.695v5.672h-3.199V8.82z"/>
	<path fill="#62BDD7" d="M172.866,8.82h3.27l3.312,8l3.654-8h3.278l-7.984,17.414h-3.305l2.622-5.615L172.866,8.82z"/>
	<path fill="#62BDD7" d="M191.378,3.898v6.328c0.578-0.578,1.203-1.012,1.875-1.301s1.391-0.434,2.157-0.434
		c1.664,0,3.078,0.629,4.242,1.887s1.746,2.871,1.746,4.84c0,1.898-0.602,3.486-1.805,4.764s-2.629,1.916-4.277,1.916
		c-0.735,0-1.419-0.131-2.052-0.393s-1.262-0.689-1.887-1.283v1.348h-3.176V3.898H191.378z M194.741,11.445
		c-1.008,0-1.844,0.344-2.508,1.031s-0.996,1.586-0.996,2.695c0,1.133,0.332,2.049,0.996,2.748s1.5,1.049,2.508,1.049
		c0.978,0,1.8-0.355,2.468-1.066s1.002-1.617,1.002-2.719c0-1.094-0.328-1.99-0.984-2.689S195.742,11.445,194.741,11.445z"/>
	<path fill="#62BDD7" d="M203.297,8.82h2.742v1.605c0.297-0.633,0.691-1.113,1.184-1.441s1.031-0.492,1.617-0.492
		c0.414,0,0.848,0.109,1.301,0.328l-0.996,2.754c-0.375-0.188-0.684-0.281-0.926-0.281c-0.492,0-0.908,0.305-1.248,0.914
		s-0.51,1.805-0.51,3.586l0.012,0.621v5.156h-3.176V8.82z"/>
	<path fill="#62BDD7" d="M217.711,8.492c1.203,0,2.334,0.301,3.393,0.902s1.885,1.418,2.479,2.449s0.891,2.145,0.891,3.34
		c0,1.203-0.299,2.328-0.896,3.375s-1.412,1.865-2.443,2.455s-2.168,0.885-3.41,0.885c-1.828,0-3.389-0.65-4.682-1.951
		s-1.939-2.881-1.939-4.74c0-1.992,0.73-3.652,2.191-4.98C214.574,9.07,216.047,8.492,217.711,8.492z M217.764,11.504
		c-0.994,0-1.821,0.346-2.482,1.037c-0.662,0.691-0.992,1.576-0.992,2.654c0,1.109,0.326,2.008,0.98,2.695
		c0.653,0.688,1.48,1.031,2.482,1.031s1.835-0.348,2.5-1.043s0.998-1.59,0.998-2.684s-0.327-1.982-0.98-2.666
		S218.781,11.504,217.764,11.504z"/>
	<path fill="#62BDD7" d="M225.674,8.82h3.132l2.563,7.254l2.759-7.254h1.915l2.709,7.172l2.567-7.172h3.151l-4.652,12.75h-2.027
		l-2.719-7.266l-2.801,7.266h-2.004L225.674,8.82z"/>
	<path fill="#62BDD7" d="M254.086,10.602l-1.98,1.98c-0.805-0.797-1.535-1.195-2.191-1.195c-0.359,0-0.641,0.076-0.844,0.229
		s-0.305,0.342-0.305,0.568c0,0.172,0.064,0.33,0.193,0.475s0.447,0.342,0.955,0.592l1.172,0.586
		c1.234,0.609,2.082,1.23,2.543,1.863s0.691,1.375,0.691,2.227c0,1.133-0.416,2.078-1.248,2.836s-1.947,1.137-3.346,1.137
		c-1.859,0-3.344-0.727-4.453-2.18l1.969-2.145c0.375,0.438,0.814,0.791,1.318,1.061s0.951,0.404,1.342,0.404
		c0.422,0,0.762-0.102,1.02-0.305s0.387-0.438,0.387-0.703c0-0.492-0.465-0.973-1.395-1.441l-1.078-0.539
		c-2.063-1.039-3.094-2.34-3.094-3.902c0-1.008,0.389-1.869,1.166-2.584s1.771-1.072,2.982-1.072c0.828,0,1.607,0.182,2.338,0.545
		S253.578,9.922,254.086,10.602z"/>
	<path fill="#62BDD7" d="M269.613,16.121h-10.277c0.148,0.906,0.545,1.627,1.189,2.162s1.467,0.803,2.467,0.803
		c1.195,0,2.223-0.418,3.082-1.254l2.695,1.266c-0.672,0.953-1.477,1.658-2.414,2.115s-2.051,0.686-3.34,0.686
		c-2,0-3.629-0.631-4.887-1.893s-1.887-2.842-1.887-4.74c0-1.945,0.627-3.561,1.881-4.846s2.826-1.928,4.717-1.928
		c2.008,0,3.641,0.643,4.898,1.928s1.887,2.982,1.887,5.092L269.613,16.121z M266.414,13.602c-0.211-0.711-0.628-1.289-1.25-1.734
		s-1.344-0.668-2.166-0.668c-0.893,0-1.675,0.25-2.348,0.75c-0.423,0.313-0.813,0.863-1.174,1.652H266.414z"/>
	<path fill="#62BDD7" d="M271.453,8.82h2.742v1.605c0.297-0.633,0.691-1.113,1.184-1.441s1.031-0.492,1.617-0.492
		c0.414,0,0.848,0.109,1.301,0.328l-0.996,2.754c-0.375-0.188-0.684-0.281-0.926-0.281c-0.492,0-0.908,0.305-1.248,0.914
		s-0.51,1.805-0.51,3.586l0.012,0.621v5.156h-3.176V8.82z"/>
	<path fill="#62BCA1" d="M281.895,18.992c0.398,0,0.738,0.141,1.02,0.422s0.422,0.625,0.422,1.031c0,0.398-0.141,0.74-0.422,1.025
		s-0.621,0.428-1.02,0.428s-0.738-0.143-1.02-0.428s-0.422-0.627-0.422-1.025c0-0.406,0.141-0.75,0.422-1.031
		S281.496,18.992,281.895,18.992z"/>
	<path fill="#62BCA1" d="M292.77,8.492c1.965,0,3.592,0.711,4.884,2.133c1.174,1.297,1.761,2.832,1.761,4.605
		c0,1.781-0.62,3.338-1.86,4.67c-1.241,1.332-2.836,1.998-4.784,1.998c-1.957,0-3.555-0.666-4.796-1.998
		c-1.24-1.332-1.86-2.889-1.86-4.67c0-1.766,0.587-3.297,1.761-4.594C289.165,9.207,290.797,8.492,292.77,8.492z M292.764,10.098
		c-1.364,0-2.536,0.504-3.517,1.512c-0.979,1.008-1.47,2.227-1.47,3.656c0,0.922,0.224,1.781,0.67,2.578
		c0.447,0.797,1.051,1.412,1.812,1.846s1.596,0.65,2.505,0.65s1.744-0.217,2.505-0.65s1.364-1.049,1.812-1.846
		c0.446-0.797,0.67-1.656,0.67-2.578c0-1.43-0.492-2.648-1.476-3.656C295.29,10.602,294.12,10.098,292.764,10.098z"/>
	<path fill="#62BCA1" d="M301.828,8.82h1.676v1.863c0.5-0.734,1.027-1.283,1.582-1.646s1.133-0.545,1.734-0.545
		c0.453,0,0.938,0.145,1.453,0.434l-0.855,1.383c-0.344-0.148-0.633-0.223-0.867-0.223c-0.547,0-1.074,0.225-1.582,0.674
		s-0.895,1.146-1.16,2.092c-0.203,0.727-0.305,2.195-0.305,4.406v4.313h-1.676V8.82z"/>
	<path fill="#62BCA1" d="M320.66,8.82h1.641v10.16c0,1.789-0.156,3.098-0.469,3.926c-0.43,1.172-1.176,2.074-2.238,2.707
		s-2.34,0.949-3.832,0.949c-1.094,0-2.076-0.154-2.947-0.463c-0.871-0.311-1.58-0.727-2.127-1.246
		c-0.547-0.521-1.051-1.283-1.512-2.287h1.781c0.484,0.844,1.11,1.469,1.877,1.875s1.717,0.609,2.852,0.609
		c1.118,0,2.063-0.207,2.833-0.625c0.771-0.416,1.32-0.939,1.648-1.57c0.329-0.631,0.493-1.648,0.493-3.055v-0.656
		c-0.618,0.781-1.373,1.381-2.264,1.799c-0.892,0.418-1.838,0.627-2.839,0.627c-1.174,0-2.276-0.291-3.309-0.873
		s-1.83-1.365-2.393-2.35c-0.563-0.984-0.845-2.066-0.845-3.246s0.293-2.279,0.88-3.299s1.397-1.826,2.434-2.42
		s2.13-0.891,3.279-0.891c0.954,0,1.844,0.197,2.669,0.592c0.824,0.395,1.62,1.045,2.387,1.951V8.82z M315.82,10.074
		c-0.93,0-1.793,0.225-2.59,0.674s-1.422,1.07-1.875,1.863s-0.68,1.65-0.68,2.572c0,1.398,0.469,2.555,1.406,3.469
		s2.152,1.371,3.645,1.371c1.508,0,2.721-0.453,3.639-1.359s1.377-2.098,1.377-3.574c0-0.961-0.211-1.818-0.633-2.572
		s-1.02-1.35-1.793-1.787S316.711,10.074,315.82,10.074z"/>
	<path fill="#29323B" d="M140.464,38.57h-0.961v-0.938h-0.023c-0.418,0.719-1.033,1.078-1.846,1.078
		c-0.598,0-1.066-0.158-1.404-0.475s-0.506-0.736-0.506-1.26c0-1.121,0.66-1.773,1.98-1.957l1.799-0.252
		c0-1.02-0.412-1.529-1.236-1.529c-0.723,0-1.375,0.246-1.957,0.738v-0.984c0.59-0.375,1.27-0.563,2.039-0.563
		c1.41,0,2.115,0.746,2.115,2.238V38.57z M139.503,35.535l-1.447,0.199c-0.445,0.063-0.781,0.173-1.008,0.331
		s-0.34,0.438-0.34,0.841c0,0.293,0.104,0.532,0.313,0.718s0.488,0.278,0.836,0.278c0.477,0,0.869-0.167,1.18-0.501
		s0.467-0.757,0.467-1.269V35.535z"/>
	<path fill="#29323B" d="M143.235,38.57h-0.961v-8.883h0.961V38.57z"/>
	<path fill="#29323B" d="M152.739,32.57l-1.799,6h-0.996l-1.236-4.295c-0.047-0.164-0.078-0.35-0.094-0.557h-0.023
		c-0.012,0.141-0.053,0.322-0.123,0.545l-1.342,4.307h-0.961l-1.816-6h1.008l1.242,4.512c0.039,0.137,0.066,0.316,0.082,0.539h0.047
		c0.012-0.172,0.047-0.355,0.105-0.551l1.383-4.5h0.879l1.242,4.523c0.039,0.145,0.068,0.324,0.088,0.539h0.047
		c0.008-0.152,0.041-0.332,0.1-0.539l1.219-4.523H152.739z"/>
	<path fill="#29323B" d="M158.147,38.57h-0.961v-0.938h-0.023c-0.418,0.719-1.033,1.078-1.846,1.078
		c-0.598,0-1.066-0.158-1.404-0.475s-0.506-0.736-0.506-1.26c0-1.121,0.66-1.773,1.98-1.957l1.799-0.252
		c0-1.02-0.412-1.529-1.236-1.529c-0.723,0-1.375,0.246-1.957,0.738v-0.984c0.59-0.375,1.27-0.563,2.039-0.563
		c1.41,0,2.115,0.746,2.115,2.238V38.57z M157.187,35.535l-1.447,0.199c-0.445,0.063-0.781,0.173-1.008,0.331
		s-0.34,0.438-0.34,0.841c0,0.293,0.104,0.532,0.313,0.718s0.488,0.278,0.836,0.278c0.477,0,0.869-0.167,1.18-0.501
		s0.467-0.757,0.467-1.269V35.535z"/>
	<path fill="#29323B" d="M164.733,32.57l-2.76,6.961c-0.492,1.242-1.184,1.863-2.074,1.863c-0.25,0-0.459-0.025-0.627-0.076v-0.861
		c0.207,0.07,0.396,0.105,0.568,0.105c0.484,0,0.848-0.289,1.09-0.867l0.48-1.137l-2.344-5.988h1.066l1.623,4.617
		c0.02,0.059,0.061,0.211,0.123,0.457h0.035c0.02-0.094,0.059-0.242,0.117-0.445l1.705-4.629H164.733z"/>
	<path fill="#29323B" d="M165.401,38.354v-1.031c0.523,0.387,1.1,0.58,1.729,0.58c0.844,0,1.266-0.281,1.266-0.844
		c0-0.16-0.037-0.296-0.109-0.407s-0.17-0.21-0.293-0.296s-0.268-0.163-0.434-0.231s-0.344-0.14-0.535-0.214
		c-0.266-0.105-0.5-0.212-0.701-0.319s-0.369-0.229-0.504-0.363s-0.236-0.288-0.305-0.46s-0.102-0.373-0.102-0.604
		c0-0.281,0.064-0.53,0.193-0.747s0.301-0.398,0.516-0.545s0.459-0.257,0.734-0.331s0.561-0.111,0.854-0.111
		c0.52,0,0.984,0.09,1.395,0.27v0.973c-0.441-0.289-0.949-0.434-1.523-0.434c-0.18,0-0.342,0.021-0.486,0.062
		s-0.27,0.099-0.373,0.173s-0.184,0.163-0.24,0.267s-0.084,0.218-0.084,0.343c0,0.156,0.027,0.287,0.084,0.393
		s0.141,0.199,0.25,0.281s0.242,0.156,0.398,0.223s0.334,0.139,0.533,0.217c0.266,0.102,0.504,0.206,0.715,0.313
		s0.391,0.229,0.539,0.363s0.262,0.29,0.342,0.466s0.121,0.385,0.121,0.627c0,0.297-0.066,0.555-0.197,0.773s-0.305,0.4-0.523,0.545
		s-0.471,0.252-0.756,0.322s-0.584,0.105-0.896,0.105C166.39,38.711,165.854,38.592,165.401,38.354z"/>
	<path fill="#29323B" d="M178.438,38.57h-0.961v-0.938h-0.023c-0.418,0.719-1.033,1.078-1.846,1.078
		c-0.598,0-1.066-0.158-1.404-0.475s-0.506-0.736-0.506-1.26c0-1.121,0.66-1.773,1.98-1.957l1.799-0.252
		c0-1.02-0.412-1.529-1.236-1.529c-0.723,0-1.375,0.246-1.957,0.738v-0.984c0.59-0.375,1.27-0.563,2.039-0.563
		c1.41,0,2.115,0.746,2.115,2.238V38.57z M177.478,35.535l-1.447,0.199c-0.445,0.063-0.781,0.173-1.008,0.331
		s-0.34,0.438-0.34,0.841c0,0.293,0.104,0.532,0.313,0.718s0.488,0.278,0.836,0.278c0.477,0,0.869-0.167,1.18-0.501
		s0.467-0.757,0.467-1.269V35.535z"/>
	<path fill="#29323B" d="M186.501,30.531c-0.188-0.105-0.4-0.158-0.639-0.158c-0.672,0-1.008,0.424-1.008,1.271v0.926h1.406v0.82
		h-1.406v5.18h-0.955v-5.18h-1.025v-0.82h1.025v-0.973c0-0.629,0.182-1.126,0.545-1.491s0.816-0.548,1.359-0.548
		c0.293,0,0.525,0.035,0.697,0.105V30.531z"/>
	<path fill="#29323B" d="M190.421,33.543c-0.168-0.129-0.41-0.193-0.727-0.193c-0.41,0-0.754,0.193-1.029,0.58
		s-0.412,0.914-0.412,1.582v3.059h-0.961v-6h0.961v1.236h0.023c0.137-0.422,0.346-0.751,0.627-0.987s0.596-0.354,0.943-0.354
		c0.25,0,0.441,0.027,0.574,0.082V33.543z"/>
	<path fill="#29323B" d="M196.285,35.811h-4.235c0.016,0.668,0.195,1.184,0.539,1.547s0.816,0.545,1.418,0.545
		c0.676,0,1.296-0.223,1.862-0.668v0.902c-0.527,0.383-1.224,0.574-2.091,0.574c-0.848,0-1.514-0.272-1.998-0.817
		s-0.727-1.312-0.727-2.3c0-0.934,0.264-1.694,0.793-2.282s1.188-0.882,1.973-0.882s1.392,0.254,1.821,0.762
		s0.645,1.213,0.645,2.115V35.811z M195.301,34.996c-0.004-0.555-0.137-0.986-0.4-1.295c-0.265-0.309-0.63-0.463-1.099-0.463
		c-0.453,0-0.838,0.162-1.154,0.486s-0.512,0.748-0.586,1.271H195.301z"/>
	<path fill="#29323B" d="M197.375,38.354v-1.031c0.523,0.387,1.1,0.58,1.729,0.58c0.844,0,1.266-0.281,1.266-0.844
		c0-0.16-0.036-0.296-0.108-0.407s-0.17-0.21-0.293-0.296s-0.268-0.163-0.434-0.231s-0.345-0.14-0.536-0.214
		c-0.266-0.105-0.499-0.212-0.7-0.319s-0.369-0.229-0.504-0.363s-0.236-0.288-0.305-0.46s-0.103-0.373-0.103-0.604
		c0-0.281,0.064-0.53,0.193-0.747s0.301-0.398,0.516-0.545s0.46-0.257,0.735-0.331s0.56-0.111,0.853-0.111
		c0.52,0,0.984,0.09,1.395,0.27v0.973c-0.441-0.289-0.949-0.434-1.523-0.434c-0.18,0-0.342,0.021-0.486,0.062
		s-0.269,0.099-0.372,0.173s-0.184,0.163-0.24,0.267s-0.085,0.218-0.085,0.343c0,0.156,0.028,0.287,0.085,0.393
		s0.14,0.199,0.249,0.281s0.242,0.156,0.398,0.223s0.334,0.139,0.533,0.217c0.266,0.102,0.504,0.206,0.715,0.313
		s0.391,0.229,0.539,0.363s0.263,0.29,0.343,0.466s0.12,0.385,0.12,0.627c0,0.297-0.065,0.555-0.196,0.773s-0.306,0.4-0.524,0.545
		s-0.471,0.252-0.756,0.322s-0.584,0.105-0.896,0.105C198.363,38.711,197.828,38.592,197.375,38.354z"/>
	<path fill="#29323B" d="M207.811,38.57h-0.961v-3.457c0-1.25-0.465-1.875-1.395-1.875c-0.469,0-0.863,0.181-1.184,0.542
		s-0.48,0.825-0.48,1.392v3.398h-0.961v-8.883h0.961v3.879h0.023c0.461-0.758,1.117-1.137,1.969-1.137
		c1.352,0,2.027,0.814,2.027,2.443V38.57z"/>
	<path fill="#29323B" d="M213.893,37.703h-0.023v0.867h-0.961v-8.883h0.961v3.938h0.023c0.473-0.797,1.164-1.195,2.074-1.195
		c0.77,0,1.372,0.269,1.808,0.806s0.653,1.257,0.653,2.159c0,1.004-0.244,1.808-0.732,2.411s-1.156,0.905-2.004,0.905
		C214.898,38.711,214.299,38.375,213.893,37.703z M213.869,35.283v0.838c0,0.496,0.161,0.917,0.483,1.263s0.731,0.519,1.228,0.519
		c0.582,0,1.038-0.223,1.368-0.668s0.495-1.064,0.495-1.857c0-0.668-0.154-1.191-0.463-1.57s-0.727-0.568-1.254-0.568
		c-0.559,0-1.008,0.194-1.348,0.583S213.869,34.697,213.869,35.283z"/>
	<path fill="#29323B" d="M223.092,33.543c-0.168-0.129-0.41-0.193-0.727-0.193c-0.41,0-0.753,0.193-1.028,0.58
		s-0.413,0.914-0.413,1.582v3.059h-0.961v-6h0.961v1.236h0.023c0.137-0.422,0.346-0.751,0.627-0.987s0.596-0.354,0.943-0.354
		c0.25,0,0.441,0.027,0.574,0.082V33.543z"/>
	<path fill="#29323B" d="M226.643,38.711c-0.887,0-1.595-0.28-2.124-0.841s-0.794-1.304-0.794-2.229
		c0-1.008,0.275-1.795,0.826-2.361s1.295-0.85,2.232-0.85c0.895,0,1.593,0.275,2.095,0.826s0.753,1.314,0.753,2.291
		c0,0.957-0.271,1.724-0.812,2.3S227.553,38.711,226.643,38.711z M226.713,33.238c-0.617,0-1.105,0.21-1.465,0.63
		s-0.539,0.999-0.539,1.737c0,0.711,0.182,1.271,0.545,1.682s0.85,0.615,1.459,0.615c0.621,0,1.099-0.201,1.433-0.604
		s0.501-0.975,0.501-1.717c0-0.75-0.167-1.328-0.501-1.734S227.334,33.238,226.713,33.238z"/>
	<path fill="#29323B" d="M238.725,32.57l-1.799,6h-0.996l-1.236-4.295c-0.047-0.164-0.078-0.35-0.094-0.557h-0.023
		c-0.012,0.141-0.053,0.322-0.123,0.545l-1.342,4.307h-0.961l-1.816-6h1.008l1.242,4.512c0.039,0.137,0.066,0.316,0.082,0.539h0.047
		c0.012-0.172,0.047-0.355,0.105-0.551l1.383-4.5h0.879l1.242,4.523c0.039,0.145,0.068,0.324,0.088,0.539h0.047
		c0.008-0.152,0.041-0.332,0.1-0.539l1.219-4.523H238.725z"/>
	<path fill="#29323B" d="M239.475,38.354v-1.031c0.523,0.387,1.1,0.58,1.729,0.58c0.844,0,1.266-0.281,1.266-0.844
		c0-0.16-0.036-0.296-0.108-0.407s-0.17-0.21-0.293-0.296s-0.268-0.163-0.434-0.231s-0.345-0.14-0.536-0.214
		c-0.266-0.105-0.499-0.212-0.7-0.319s-0.369-0.229-0.504-0.363s-0.236-0.288-0.305-0.46s-0.103-0.373-0.103-0.604
		c0-0.281,0.064-0.53,0.193-0.747s0.301-0.398,0.516-0.545s0.46-0.257,0.735-0.331s0.56-0.111,0.853-0.111
		c0.52,0,0.984,0.09,1.395,0.27v0.973c-0.441-0.289-0.949-0.434-1.523-0.434c-0.18,0-0.342,0.021-0.486,0.062
		s-0.269,0.099-0.372,0.173s-0.184,0.163-0.24,0.267s-0.085,0.218-0.085,0.343c0,0.156,0.028,0.287,0.085,0.393
		s0.14,0.199,0.249,0.281s0.242,0.156,0.398,0.223s0.334,0.139,0.533,0.217c0.266,0.102,0.504,0.206,0.715,0.313
		s0.391,0.229,0.539,0.363s0.263,0.29,0.343,0.466s0.12,0.385,0.12,0.627c0,0.297-0.065,0.555-0.196,0.773s-0.306,0.4-0.524,0.545
		s-0.471,0.252-0.756,0.322s-0.584,0.105-0.896,0.105C240.463,38.711,239.928,38.592,239.475,38.354z"/>
	<path fill="#29323B" d="M249.752,35.811h-4.236c0.016,0.668,0.195,1.184,0.539,1.547s0.816,0.545,1.418,0.545
		c0.676,0,1.297-0.223,1.863-0.668v0.902c-0.527,0.383-1.225,0.574-2.092,0.574c-0.848,0-1.514-0.272-1.998-0.817
		s-0.727-1.312-0.727-2.3c0-0.934,0.265-1.694,0.794-2.282s1.187-0.882,1.972-0.882s1.393,0.254,1.822,0.762
		s0.645,1.213,0.645,2.115V35.811z M248.768,34.996c-0.004-0.555-0.138-0.986-0.401-1.295s-0.63-0.463-1.099-0.463
		c-0.453,0-0.838,0.162-1.154,0.486s-0.512,0.748-0.586,1.271H248.768z"/>
	<path fill="#29323B" d="M254.334,33.543c-0.168-0.129-0.41-0.193-0.727-0.193c-0.41,0-0.753,0.193-1.028,0.58
		s-0.413,0.914-0.413,1.582v3.059h-0.961v-6h0.961v1.236h0.023c0.137-0.422,0.346-0.751,0.627-0.987s0.596-0.354,0.943-0.354
		c0.25,0,0.441,0.027,0.574,0.082V33.543z"/>
</g>
<linearGradient id="SVGID_1_" gradientUnits="userSpaceOnUse" x1="2.8838" y1="32.3252" x2="40.2136" y2="10.7728">
	<stop  offset="0" style="stop-color:#62BDD7"/>
	<stop  offset="1" style="stop-color:#62BCA1"/>
</linearGradient>
<circle fill-rule="evenodd" clip-rule="evenodd" fill="url(#SVGID_1_)" cx="21.549" cy="21.549" r="21.549"/>
<g>
	<path fill-rule="evenodd" clip-rule="evenodd" fill="#FFFFFF" d="M25.774,5.988c-2.952,0.619-5.358,3.001-5.858,6.158
		c-0.647,4.084,2.14,7.921,6.223,8.567c1.316,0.207,2.607,0.061,3.773-0.374c-3.914-1.265-6.388-5.65-5.642-10.361
		C24.506,8.498,25.034,7.146,25.774,5.988z"/>
	<path fill-rule="evenodd" clip-rule="evenodd" fill="#FFFFFF" d="M29.912,20.34c-3.914-1.265-6.388-5.65-5.642-10.361
		c0.236-1.48,0.764-2.833,1.504-3.99c-0.007,0.002-0.015,0.002-0.021,0.006c-1.503,1.475-2.618,3.599-3.009,6.064
		c-0.515,3.256,0.35,6.332,2.086,8.326c0.418,0.147,0.856,0.256,1.309,0.329C27.456,20.921,28.747,20.774,29.912,20.34z"/>
	<path fill-rule="evenodd" clip-rule="evenodd" fill="#FFFFFF" d="M15.261,12.308c-2.211,2.981-2.479,7.138-0.362,10.45
		c2.739,4.284,8.436,5.539,12.721,2.798c1.38-0.881,2.447-2.071,3.167-3.425c-4.634,2.033-10.491,0.021-13.651-4.925
		C16.143,15.653,15.523,13.979,15.261,12.308z"/>
	<path fill-rule="evenodd" clip-rule="evenodd" fill="#FFFFFF" d="M30.787,22.131c-4.634,2.033-10.491,0.021-13.651-4.925
		c-0.993-1.553-1.613-3.228-1.875-4.898c-0.007,0.006-0.013,0.016-0.018,0.023c-0.178,2.584,0.531,5.447,2.187,8.036
		c2.183,3.416,5.492,5.541,8.716,5.955c0.503-0.206,0.998-0.46,1.474-0.767C29,24.675,30.067,23.484,30.787,22.131z"/>
	<path fill-rule="evenodd" clip-rule="evenodd" fill="#FFFFFF" d="M10.238,26.768c0.401,4.547,3.546,8.59,8.199,9.908
		c6.02,1.707,12.285-1.79,13.99-7.812c0.551-1.938,0.559-3.905,0.118-5.736c-2.604,5.653-9.637,8.584-16.58,6.615
		C13.782,29.125,11.844,28.089,10.238,26.768z"/>
	<path fill-rule="evenodd" clip-rule="evenodd" fill="#FFFFFF" d="M32.545,23.128c-2.604,5.653-9.637,8.584-16.58,6.615
		c-2.183-0.618-4.122-1.654-5.727-2.976c0.001,0.009,0.002,0.021,0.004,0.035c1.946,2.524,4.937,4.578,8.573,5.608
		c4.798,1.358,9.576,0.611,12.881-1.638c0.296-0.604,0.541-1.241,0.73-1.909C32.978,26.926,32.986,24.959,32.545,23.128z"/>
</g>
</svg>
